<svg xmlns="http://www.w3.org/2000/svg" viewBox="-1312.37 -400.445 3347.684 730.205">
  <g transform="matrix(0.1, 0, 0, -0.1, -1245.819946, 491.535248)" fill="#000000" stroke="none">
    <path d="M21925 8579 c-77 -4 -624 -12 -1215 -19 -591 -6 -1075 -13 -1076 -13
0 -1 -44 -121 -97 -267 -212 -587 -292 -952 -304 -1391 -6 -241 4 -384 43
-577 117 -589 459 -1036 992 -1298 53 -27 174 -83 267 -125 l170 -76 14 -49
c19 -64 21 -1012 2 -1274 -22 -311 -38 -374 -116 -452 -70 -70 -251 -130 -590
-193 -435 -81 -528 -112 -480 -165 23 -26 116 -49 241 -60 60 -5 332 -15 604
-21 684 -17 1555 4 1735 41 68 14 159 68 163 97 3 23 5 22 -118 53 -19 5 -163
32 -320 60 -323 59 -482 97 -564 136 -73 35 -136 104 -159 176 -66 209 -85
750 -47 1323 11 165 20 307 20 316 0 11 33 29 103 57 285 114 503 228 642 336
416 325 649 727 741 1276 36 218 29 580 -17 850 -75 443 -294 1148 -381 1228
-23 21 -81 44 -103 41 -5 -1 -73 -5 -150 -10z m399 -1511 c12 -17 16 -50 16
-146 0 -122 0 -124 -28 -152 -37 -36 -182 -83 -322 -104 -249 -37 -669 -44
-835 -15 -34 6 -77 19 -95 30 -60 37 -31 53 330 181 441 157 695 226 837 227
74 1 83 -1 97 -21z m-2579 -107 c271 -67 634 -192 974 -336 375 -158 533 -202
756 -212 161 -6 271 7 530 63 88 20 192 38 232 41 70 6 73 5 83 -19 14 -30 -6
-153 -45 -275 -37 -114 -154 -343 -232 -453 -84 -117 -290 -325 -400 -403
-104 -74 -267 -159 -358 -187 -141 -43 -524 -50 -705 -14 -202 41 -454 189
-637 374 -325 329 -494 787 -481 1303 2 109 6 140 18 148 23 15 131 3 265 -30z" style="fill: rgb(171, 22, 22);"></path>
    <path d="M23519 8277 c-57 -30 -167 -92 -244 -137 -77 -46 -187 -111 -245
-145 -58 -34 -139 -82 -180 -106 l-75 -45 -8 -704 c-10 -906 -2 -2924 12
-3091 52 -622 474 -1163 1056 -1357 189 -63 280 -77 500 -77 211 0 265 8 458
61 377 105 760 365 1049 714 131 158 290 440 357 632 42 120 87 314 102 432
18 153 6 421 -26 576 -77 372 -246 690 -500 946 -300 301 -566 418 -990 431
-248 8 -427 -23 -629 -108 -194 -81 -236 -125 -236 -246 0 -55 3 -66 31 -98
34 -39 94 -61 312 -116 294 -74 380 -119 603 -317 394 -349 566 -864 568
-1702 0 -190 -5 -307 -17 -414 -9 -82 -18 -150 -20 -151 -6 -5 -481 25 -562
35 -343 42 -601 153 -786 339 -114 115 -168 203 -282 457 l-45 99 -5 1855 c-6
2158 -10 2279 -73 2288 -12 2 -69 -21 -125 -51z"></path>
    <path d="M7009 8298 c-193 -14 -353 -84 -478 -208 -87 -86 -140 -170 -178
-285 -24 -71 -27 -96 -27 -220 -1 -118 3 -151 22 -211 78 -248 269 -430 518
-495 97 -24 270 -27 359 -6 353 86 605 372 605 686 0 248 -189 547 -430 678
-95 52 -231 74 -391 61z"></path>
    <path d="M30975 7451 c-54 -24 -271 -156 -548 -334 l-228 -145 1 -1424 c1
-1710 10 -2117 51 -2271 31 -118 121 -274 216 -377 108 -117 233 -187 411
-233 79 -20 110 -22 327 -21 283 1 378 16 560 90 176 72 418 204 506 276 38
31 69 91 69 134 0 77 -4 78 -369 86 -477 10 -580 33 -694 153 -76 80 -125 174
-143 274 -18 98 -31 621 -39 1539 l-6 712 595 0 596 0 0 213 0 214 -290 6
c-159 4 -420 10 -578 13 l-288 7 -12 471 c-12 470 -20 571 -48 614 -17 27 -36
27 -89 3z"></path>
    <path d="M17333 6430 c-207 -22 -326 -55 -484 -136 -330 -169 -565 -394 -640
-616 -39 -115 -47 -671 -13 -828 38 -171 206 -383 409 -515 185 -121 322 -176
770 -311 715 -215 781 -240 890 -348 87 -85 109 -146 102 -276 -6 -112 -17
-152 -57 -211 -58 -87 -237 -196 -385 -235 -62 -17 -111 -19 -425 -19 -344 0
-357 1 -430 23 -190 60 -351 152 -395 226 -15 25 -58 134 -95 243 -81 230 -97
253 -178 252 -60 0 -180 -13 -187 -20 -9 -9 -37 -771 -28 -779 20 -20 357
-182 446 -215 247 -91 535 -138 852 -139 345 0 598 51 840 171 445 221 700
586 722 1034 7 154 -6 258 -53 398 -59 177 -152 322 -295 456 -201 190 -418
280 -1083 450 -438 112 -632 190 -742 300 -53 52 -63 69 -74 117 -7 32 -11 92
-8 144 6 123 31 177 119 258 149 138 333 184 683 173 251 -8 391 -38 546 -118
183 -94 266 -219 289 -433 10 -99 25 -128 86 -162 77 -44 168 -39 217 13 51
54 78 214 78 470 0 194 -10 243 -62 299 -108 117 -538 277 -858 319 -149 19
-442 27 -557 15z"></path>
    <path d="M13900 6423 c-237 -23 -452 -89 -669 -204 -201 -107 -350 -220 -507
-381 -159 -165 -254 -300 -353 -502 -137 -279 -201 -558 -201 -875 0 -749 389
-1397 1025 -1710 270 -133 499 -184 825 -183 457 2 706 82 1611 516 l96 46 6
157 c8 177 -5 429 -22 461 -7 12 -18 22 -26 22 -18 0 -167 -67 -405 -183 -340
-165 -567 -227 -830 -227 -207 0 -354 40 -500 136 -80 53 -258 230 -245 243
29 28 934 534 1315 736 514 272 599 322 659 391 47 53 61 93 61 172 0 394
-283 863 -679 1127 -185 123 -357 191 -583 230 -146 26 -453 41 -578 28z m251
-391 c142 -40 266 -138 327 -259 41 -81 63 -192 69 -353 10 -237 -24 -428
-101 -585 -102 -205 -225 -307 -685 -566 -97 -55 -199 -107 -228 -116 -48 -15
-53 -15 -77 0 -14 10 -30 33 -35 54 -36 133 -41 974 -7 1155 52 283 224 551
411 644 95 46 218 56 326 26z"></path>
    <path d="M7535 6391 c-127 -51 -459 -207 -948 -446 l-97 -48 2 -1431 c1 -787
4 -1527 6 -1643 l3 -213 603 0 604 0 8 428 c14 672 11 2459 -4 2787 -16 323
-34 521 -54 562 -18 37 -40 38 -123 4z"></path>
    <path d="M9895 6414 c-16 -2 -73 -9 -125 -15 -188 -22 -379 -87 -710 -244
-219 -104 -368 -185 -565 -308 l-163 -101 -6 -620 c-3 -342 -8 -1052 -12
-1578 l-5 -958 605 0 606 0 0 88 c3 852 22 2504 30 2652 14 248 34 398 66 501
22 70 34 90 79 135 73 73 97 79 345 79 188 0 209 -2 251 -21 91 -43 167 -134
216 -261 24 -64 26 -83 35 -348 6 -161 7 -817 4 -1547 l-5 -1268 603 0 603 0
6 422 c11 665 8 2229 -3 2374 -13 159 -42 248 -114 358 -125 192 -311 344
-591 484 -240 119 -359 152 -630 172 -130 9 -451 12 -520 4z"></path>
    <path d="M28085 6404 c-130 -21 -328 -96 -495 -187 -460 -251 -798 -643 -985
-1142 -158 -421 -177 -968 -48 -1360 74 -226 190 -413 368 -591 263 -264 520
-412 835 -480 118 -26 462 -26 600 -1 324 60 576 178 830 388 113 93 366 352
445 454 217 283 353 622 395 990 34 305 -27 662 -166 966 -101 221 -213 378
-390 549 -228 219 -499 360 -762 396 -105 14 -568 27 -627 18z m-383 -540
c232 -29 498 -100 653 -174 173 -82 372 -256 500 -435 130 -182 230 -418 274
-647 31 -163 41 -360 41 -865 l0 -462 -37 -7 c-79 -15 -404 -9 -518 10 -228
37 -437 98 -540 156 -177 102 -448 387 -540 570 -84 169 -149 436 -192 790
-27 226 -24 661 6 890 12 96 25 178 27 182 9 13 196 9 326 -8z"></path>
    <path d="M2720 6369 c-157 -4 -298 -11 -315 -16 -28 -9 -30 -13 -29 -59 3 -94
60 -241 540 -1379 40 -96 44 -157 13 -247 -56 -162 -313 -738 -330 -738 -11 0
-58 101 -214 465 -136 319 -182 429 -578 1400 l-233 570 -604 -1 c-557 0 -716
-6 -737 -28 -31 -31 585 -1478 1460 -3431 l134 -300 369 -3 370 -2 144 342
c326 779 394 940 457 1083 36 83 69 154 73 158 4 5 42 -74 85 -175 42 -101
117 -275 165 -388 49 -113 157 -365 241 -560 83 -195 161 -376 172 -402 l21
-48 352 0 352 0 42 103 c24 56 296 694 606 1417 778 1819 895 2101 896 2162 1
38 -28 67 -78 78 -94 22 -295 2 -352 -36 -38 -25 -170 -321 -601 -1351 -285
-679 -427 -1003 -440 -1003 -9 0 -6 -6 -113 235 -116 260 -231 538 -478 1156
-237 592 -335 826 -378 904 -21 39 -35 53 -65 62 -93 31 -459 43 -947 32z"></path>
  </g>
</svg>