<?xml version="1.0" encoding="utf-8"?>
<!-- Svg Vector Icons : http://www.onlinewebfonts.com/icon -->
<!DOCTYPE svg PUBLIC "-//W3C//DTD SVG 1.1//EN" "http://www.w3.org/Graphics/SVG/1.1/DTD/svg11.dtd">
<svg version="1.1" xmlns="http://www.w3.org/2000/svg" xmlns:xlink="http://www.w3.org/1999/xlink" x="0px" y="0px" viewBox="0 0 256 256" enable-background="new 0 0 256 256" xml:space="preserve">
<metadata> Svg Vector Icons : http://www.onlinewebfonts.com/icon </metadata>
<g><g><path fill="#FFFFFF" d="M128,10C62.8,10,10,62.8,10,128c0,65.2,52.8,118,118,118c65.2,0,118-52.8,118-118C246,62.8,193.2,10,128,10z M128,235.6c-59.4,0-107.6-48.2-107.6-107.6C20.4,68.6,68.6,20.4,128,20.4c59.4,0,107.6,48.2,107.6,107.6C235.6,187.4,187.4,235.6,128,235.6z"/><path fill="#FFFFFF" d="M128,43.2c12.7,0,23.1,10.2,23.1,22.8v59.4c0,12.5-10.4,22.8-23.1,22.8c-12.7,0-23.1-10.2-23.1-22.8V65.9C104.9,53.4,115.3,43.2,128,43.2 M128,32.1c-18.8,0-34.1,15.1-34.1,33.8v59.4c0,18.7,15.3,33.8,34.1,33.8c18.8,0,34.1-15.1,34.1-33.8V65.9C162.1,47.3,146.8,32.1,128,32.1L128,32.1z M69.7,116.9c-3.9,0-7.1,3.2-7.1,7c0,0.5,0,1,0.1,1.4h-0.1c0,32.9,24.8,60,56.8,64.2V207h-11.4c-4.7,0-8.5,3.8-8.5,8.5s3.8,8.5,8.5,8.5h39.8c4.7,0,8.5-3.8,8.5-8.5s-3.8-8.5-8.5-8.5h-11.4v-17.5c31.1-4,55.3-29.7,56.7-61.3c0.1-0.5,0.1-0.9,0.1-1.4c0-0.2,0-0.3,0-0.5c0-0.3,0-0.6,0-0.9h-0.1c-0.6-3.2-3.5-5.6-7-5.6c-3.4,0-6.3,2.4-7,5.6h-0.1c0,28-22.9,50.7-51.2,50.7c-28.2,0-51.1-22.7-51.1-50.7h-0.1c0.1-0.5,0.1-0.9,0.1-1.4C76.9,120,73.7,116.9,69.7,116.9L69.7,116.9z"/></g></g>
</svg>